# MagicaVoxel @ ephtracy

# material
mtllib corn.mtl
usemtl palette

# normals
vn -1 0 0
vn 1 0 0
vn 0 0 1
vn 0 0 -1
vn 0 -1 0
vn 0 1 0

# texcoords
vt 0.0136719 0.5
vt 0.0214844 0.5
vt 0.373047 0.5

# verts
v -4 1 1.5
v -4 1 0.5
v -4 2 0.5
v -4 2 1.5
v -4 1 0.5
v -4 1 -0.5
v -4 2 -0.5
v -4 2 0.5
v -4 1 -0.5
v -4 1 -1.5
v -4 2 -1.5
v -4 2 -0.5
v -3 0 1.5
v -3 0 0.5
v -3 1 0.5
v -3 1 1.5
v -3 0 0.5
v -3 0 -0.5
v -3 1 -0.5
v -3 1 0.5
v -3 0 -0.5
v -3 0 -1.5
v -3 1 -1.5
v -3 1 -0.5
v -3 1 2.5
v -3 1 1.5
v -3 2 1.5
v -3 2 2.5
v -3 1 -1.5
v -3 1 -2.5
v -3 2 -2.5
v -3 2 -1.5
v -3 2 1.5
v -3 2 0.5
v -3 3 0.5
v -3 3 1.5
v -3 2 0.5
v -3 2 -0.5
v -3 3 -0.5
v -3 3 0.5
v -3 2 -0.5
v -3 2 -1.5
v -3 3 -1.5
v -3 3 -0.5
v -1 0 2.5
v -1 0 1.5
v -1 1 1.5
v -1 1 2.5
v -1 0 -1.5
v -1 0 -2.5
v -1 1 -2.5
v -1 1 -1.5
v -1 2 2.5
v -1 2 1.5
v -1 3 1.5
v -1 3 2.5
v -1 2 -1.5
v -1 2 -2.5
v -1 3 -2.5
v -1 3 -1.5
v 3 0 2.5
v 3 0 1.5
v 3 1 1.5
v 3 1 2.5
v 3 0 -1.5
v 3 0 -2.5
v 3 1 -2.5
v 3 1 -1.5
v 3 2 2.5
v 3 2 1.5
v 3 3 1.5
v 3 3 2.5
v 3 2 -1.5
v 3 2 -2.5
v 3 3 -2.5
v 3 3 -1.5
v 4 0 1.5
v 4 0 0.5
v 4 1 0.5
v 4 1 1.5
v 4 0 0.5
v 4 0 -0.5
v 4 1 -0.5
v 4 1 0.5
v 4 0 -0.5
v 4 0 -1.5
v 4 1 -1.5
v 4 1 -0.5
v 4 1 2.5
v 4 1 1.5
v 4 2 1.5
v 4 2 2.5
v 4 1 1.5
v 4 1 0.5
v 4 2 0.5
v 4 2 1.5
v 4 1 0.5
v 4 1 -0.5
v 4 2 -0.5
v 4 2 0.5
v 4 1 -0.5
v 4 1 -1.5
v 4 2 -1.5
v 4 2 -0.5
v 4 1 -1.5
v 4 1 -2.5
v 4 2 -2.5
v 4 2 -1.5
v 4 2 1.5
v 4 2 0.5
v 4 3 0.5
v 4 3 1.5
v 4 2 0.5
v 4 2 -0.5
v 4 3 -0.5
v 4 3 0.5
v 4 2 -0.5
v 4 2 -1.5
v 4 3 -1.5
v 4 3 -0.5
v -3 1 2.5
v -3 2 2.5
v -2 2 2.5
v -2 1 2.5
v -2 1 2.5
v -2 2 2.5
v -1 2 2.5
v -1 1 2.5
v -1 0 2.5
v -1 1 2.5
v 0 1 2.5
v 0 0 2.5
v -1 1 2.5
v -1 2 2.5
v 0 2 2.5
v 0 1 2.5
v -1 2 2.5
v -1 3 2.5
v 0 3 2.5
v 0 2 2.5
v 0 0 2.5
v 0 1 2.5
v 1 1 2.5
v 1 0 2.5
v 0 1 2.5
v 0 2 2.5
v 1 2 2.5
v 1 1 2.5
v 0 2 2.5
v 0 3 2.5
v 1 3 2.5
v 1 2 2.5
v 1 0 2.5
v 1 1 2.5
v 2 1 2.5
v 2 0 2.5
v 1 1 2.5
v 1 2 2.5
v 2 2 2.5
v 2 1 2.5
v 1 2 2.5
v 1 3 2.5
v 2 3 2.5
v 2 2 2.5
v 2 0 2.5
v 2 1 2.5
v 3 1 2.5
v 3 0 2.5
v 2 1 2.5
v 2 2 2.5
v 3 2 2.5
v 3 1 2.5
v 2 2 2.5
v 2 3 2.5
v 3 3 2.5
v 3 2 2.5
v 3 1 2.5
v 3 2 2.5
v 4 2 2.5
v 4 1 2.5
v -4 1 1.5
v -4 2 1.5
v -3 2 1.5
v -3 1 1.5
v -3 0 1.5
v -3 1 1.5
v -2 1 1.5
v -2 0 1.5
v -3 2 1.5
v -3 3 1.5
v -2 3 1.5
v -2 2 1.5
v -2 0 1.5
v -2 1 1.5
v -1 1 1.5
v -1 0 1.5
v -2 2 1.5
v -2 3 1.5
v -1 3 1.5
v -1 2 1.5
v 3 0 1.5
v 3 1 1.5
v 4 1 1.5
v 4 0 1.5
v 3 2 1.5
v 3 3 1.5
v 4 3 1.5
v 4 2 1.5
v -4 1 -1.5
v -4 2 -1.5
v -3 2 -1.5
v -3 1 -1.5
v -3 0 -1.5
v -3 1 -1.5
v -2 1 -1.5
v -2 0 -1.5
v -3 2 -1.5
v -3 3 -1.5
v -2 3 -1.5
v -2 2 -1.5
v -2 0 -1.5
v -2 1 -1.5
v -1 1 -1.5
v -1 0 -1.5
v -2 2 -1.5
v -2 3 -1.5
v -1 3 -1.5
v -1 2 -1.5
v 3 0 -1.5
v 3 1 -1.5
v 4 1 -1.5
v 4 0 -1.5
v 3 2 -1.5
v 3 3 -1.5
v 4 3 -1.5
v 4 2 -1.5
v -3 1 -2.5
v -3 2 -2.5
v -2 2 -2.5
v -2 1 -2.5
v -2 1 -2.5
v -2 2 -2.5
v -1 2 -2.5
v -1 1 -2.5
v -1 0 -2.5
v -1 1 -2.5
v 0 1 -2.5
v 0 0 -2.5
v -1 1 -2.5
v -1 2 -2.5
v 0 2 -2.5
v 0 1 -2.5
v -1 2 -2.5
v -1 3 -2.5
v 0 3 -2.5
v 0 2 -2.5
v 0 0 -2.5
v 0 1 -2.5
v 1 1 -2.5
v 1 0 -2.5
v 0 1 -2.5
v 0 2 -2.5
v 1 2 -2.5
v 1 1 -2.5
v 0 2 -2.5
v 0 3 -2.5
v 1 3 -2.5
v 1 2 -2.5
v 1 0 -2.5
v 1 1 -2.5
v 2 1 -2.5
v 2 0 -2.5
v 1 1 -2.5
v 1 2 -2.5
v 2 2 -2.5
v 2 1 -2.5
v 1 2 -2.5
v 1 3 -2.5
v 2 3 -2.5
v 2 2 -2.5
v 2 0 -2.5
v 2 1 -2.5
v 3 1 -2.5
v 3 0 -2.5
v 2 1 -2.5
v 2 2 -2.5
v 3 2 -2.5
v 3 1 -2.5
v 2 2 -2.5
v 2 3 -2.5
v 3 3 -2.5
v 3 2 -2.5
v 3 1 -2.5
v 3 2 -2.5
v 4 2 -2.5
v 4 1 -2.5
v -1 0 2.5
v 0 0 2.5
v 0 0 1.5
v -1 0 1.5
v 0 0 2.5
v 1 0 2.5
v 1 0 1.5
v 0 0 1.5
v 1 0 2.5
v 2 0 2.5
v 2 0 1.5
v 1 0 1.5
v 2 0 2.5
v 3 0 2.5
v 3 0 1.5
v 2 0 1.5
v -3 0 1.5
v -2 0 1.5
v -2 0 0.5
v -3 0 0.5
v -2 0 1.5
v -1 0 1.5
v -1 0 0.5
v -2 0 0.5
v -1 0 1.5
v 0 0 1.5
v 0 0 0.5
v -1 0 0.5
v 0 0 1.5
v 1 0 1.5
v 1 0 0.5
v 0 0 0.5
v 1 0 1.5
v 2 0 1.5
v 2 0 0.5
v 1 0 0.5
v 2 0 1.5
v 3 0 1.5
v 3 0 0.5
v 2 0 0.5
v 3 0 1.5
v 4 0 1.5
v 4 0 0.5
v 3 0 0.5
v -3 0 0.5
v -2 0 0.5
v -2 0 -0.5
v -3 0 -0.5
v -2 0 0.5
v -1 0 0.5
v -1 0 -0.5
v -2 0 -0.5
v -1 0 0.5
v 0 0 0.5
v 0 0 -0.5
v -1 0 -0.5
v 0 0 0.5
v 1 0 0.5
v 1 0 -0.5
v 0 0 -0.5
v 1 0 0.5
v 2 0 0.5
v 2 0 -0.5
v 1 0 -0.5
v 2 0 0.5
v 3 0 0.5
v 3 0 -0.5
v 2 0 -0.5
v 3 0 0.5
v 4 0 0.5
v 4 0 -0.5
v 3 0 -0.5
v -3 0 -0.5
v -2 0 -0.5
v -2 0 -1.5
v -3 0 -1.5
v -2 0 -0.5
v -1 0 -0.5
v -1 0 -1.5
v -2 0 -1.5
v -1 0 -0.5
v 0 0 -0.5
v 0 0 -1.5
v -1 0 -1.5
v 0 0 -0.5
v 1 0 -0.5
v 1 0 -1.5
v 0 0 -1.5
v 1 0 -0.5
v 2 0 -0.5
v 2 0 -1.5
v 1 0 -1.5
v 2 0 -0.5
v 3 0 -0.5
v 3 0 -1.5
v 2 0 -1.5
v 3 0 -0.5
v 4 0 -0.5
v 4 0 -1.5
v 3 0 -1.5
v -1 0 -1.5
v 0 0 -1.5
v 0 0 -2.5
v -1 0 -2.5
v 0 0 -1.5
v 1 0 -1.5
v 1 0 -2.5
v 0 0 -2.5
v 1 0 -1.5
v 2 0 -1.5
v 2 0 -2.5
v 1 0 -2.5
v 2 0 -1.5
v 3 0 -1.5
v 3 0 -2.5
v 2 0 -2.5
v -3 1 2.5
v -2 1 2.5
v -2 1 1.5
v -3 1 1.5
v -2 1 2.5
v -1 1 2.5
v -1 1 1.5
v -2 1 1.5
v 3 1 2.5
v 4 1 2.5
v 4 1 1.5
v 3 1 1.5
v -4 1 1.5
v -3 1 1.5
v -3 1 0.5
v -4 1 0.5
v -4 1 0.5
v -3 1 0.5
v -3 1 -0.5
v -4 1 -0.5
v -4 1 -0.5
v -3 1 -0.5
v -3 1 -1.5
v -4 1 -1.5
v -3 1 -1.5
v -2 1 -1.5
v -2 1 -2.5
v -3 1 -2.5
v -2 1 -1.5
v -1 1 -1.5
v -1 1 -2.5
v -2 1 -2.5
v 3 1 -1.5
v 4 1 -1.5
v 4 1 -2.5
v 3 1 -2.5
v -3 2 2.5
v -2 2 2.5
v -2 2 1.5
v -3 2 1.5
v -2 2 2.5
v -1 2 2.5
v -1 2 1.5
v -2 2 1.5
v 3 2 2.5
v 4 2 2.5
v 4 2 1.5
v 3 2 1.5
v -4 2 1.5
v -3 2 1.5
v -3 2 0.5
v -4 2 0.5
v -4 2 0.5
v -3 2 0.5
v -3 2 -0.5
v -4 2 -0.5
v -4 2 -0.5
v -3 2 -0.5
v -3 2 -1.5
v -4 2 -1.5
v -3 2 -1.5
v -2 2 -1.5
v -2 2 -2.5
v -3 2 -2.5
v -2 2 -1.5
v -1 2 -1.5
v -1 2 -2.5
v -2 2 -2.5
v 3 2 -1.5
v 4 2 -1.5
v 4 2 -2.5
v 3 2 -2.5
v -1 3 2.5
v 0 3 2.5
v 0 3 1.5
v -1 3 1.5
v 0 3 2.5
v 1 3 2.5
v 1 3 1.5
v 0 3 1.5
v 1 3 2.5
v 2 3 2.5
v 2 3 1.5
v 1 3 1.5
v 2 3 2.5
v 3 3 2.5
v 3 3 1.5
v 2 3 1.5
v -3 3 1.5
v -2 3 1.5
v -2 3 0.5
v -3 3 0.5
v -2 3 1.5
v -1 3 1.5
v -1 3 0.5
v -2 3 0.5
v -1 3 1.5
v 0 3 1.5
v 0 3 0.5
v -1 3 0.5
v 0 3 1.5
v 1 3 1.5
v 1 3 0.5
v 0 3 0.5
v 1 3 1.5
v 2 3 1.5
v 2 3 0.5
v 1 3 0.5
v 2 3 1.5
v 3 3 1.5
v 3 3 0.5
v 2 3 0.5
v 3 3 1.5
v 4 3 1.5
v 4 3 0.5
v 3 3 0.5
v -3 3 0.5
v -2 3 0.5
v -2 3 -0.5
v -3 3 -0.5
v -2 3 0.5
v -1 3 0.5
v -1 3 -0.5
v -2 3 -0.5
v -1 3 0.5
v 0 3 0.5
v 0 3 -0.5
v -1 3 -0.5
v 0 3 0.5
v 1 3 0.5
v 1 3 -0.5
v 0 3 -0.5
v 1 3 0.5
v 2 3 0.5
v 2 3 -0.5
v 1 3 -0.5
v 2 3 0.5
v 3 3 0.5
v 3 3 -0.5
v 2 3 -0.5
v 3 3 0.5
v 4 3 0.5
v 4 3 -0.5
v 3 3 -0.5
v -3 3 -0.5
v -2 3 -0.5
v -2 3 -1.5
v -3 3 -1.5
v -2 3 -0.5
v -1 3 -0.5
v -1 3 -1.5
v -2 3 -1.5
v -1 3 -0.5
v 0 3 -0.5
v 0 3 -1.5
v -1 3 -1.5
v 0 3 -0.5
v 1 3 -0.5
v 1 3 -1.5
v 0 3 -1.5
v 1 3 -0.5
v 2 3 -0.5
v 2 3 -1.5
v 1 3 -1.5
v 2 3 -0.5
v 3 3 -0.5
v 3 3 -1.5
v 2 3 -1.5
v 3 3 -0.5
v 4 3 -0.5
v 4 3 -1.5
v 3 3 -1.5
v -1 3 -1.5
v 0 3 -1.5
v 0 3 -2.5
v -1 3 -2.5
v 0 3 -1.5
v 1 3 -1.5
v 1 3 -2.5
v 0 3 -2.5
v 1 3 -1.5
v 2 3 -1.5
v 2 3 -2.5
v 1 3 -2.5
v 2 3 -1.5
v 3 3 -1.5
v 3 3 -2.5
v 2 3 -2.5

# faces
f 4/3/1 3/3/1 2/3/1 1/3/1
f 8/3/1 7/3/1 6/3/1 5/3/1
f 12/3/1 11/3/1 10/3/1 9/3/1
f 16/1/1 15/1/1 14/1/1 13/1/1
f 20/1/1 19/1/1 18/1/1 17/1/1
f 24/1/1 23/1/1 22/1/1 21/1/1
f 28/1/1 27/1/1 26/1/1 25/1/1
f 32/1/1 31/1/1 30/1/1 29/1/1
f 36/1/1 35/1/1 34/1/1 33/1/1
f 40/1/1 39/1/1 38/1/1 37/1/1
f 44/1/1 43/1/1 42/1/1 41/1/1
f 48/2/1 47/2/1 46/2/1 45/2/1
f 52/2/1 51/2/1 50/2/1 49/2/1
f 56/2/1 55/2/1 54/2/1 53/2/1
f 60/2/1 59/2/1 58/2/1 57/2/1
f 61/2/2 62/2/2 63/2/2 64/2/2
f 65/2/2 66/2/2 67/2/2 68/2/2
f 69/2/2 70/2/2 71/2/2 72/2/2
f 73/2/2 74/2/2 75/2/2 76/2/2
f 77/2/2 78/2/2 79/2/2 80/2/2
f 81/2/2 82/2/2 83/2/2 84/2/2
f 85/2/2 86/2/2 87/2/2 88/2/2
f 89/2/2 90/2/2 91/2/2 92/2/2
f 93/2/2 94/2/2 95/2/2 96/2/2
f 97/2/2 98/2/2 99/2/2 100/2/2
f 101/2/2 102/2/2 103/2/2 104/2/2
f 105/2/2 106/2/2 107/2/2 108/2/2
f 109/2/2 110/2/2 111/2/2 112/2/2
f 113/2/2 114/2/2 115/2/2 116/2/2
f 117/2/2 118/2/2 119/2/2 120/2/2
f 124/1/3 123/1/3 122/1/3 121/1/3
f 128/2/3 127/2/3 126/2/3 125/2/3
f 132/2/3 131/2/3 130/2/3 129/2/3
f 136/2/3 135/2/3 134/2/3 133/2/3
f 140/2/3 139/2/3 138/2/3 137/2/3
f 144/2/3 143/2/3 142/2/3 141/2/3
f 148/2/3 147/2/3 146/2/3 145/2/3
f 152/2/3 151/2/3 150/2/3 149/2/3
f 156/2/3 155/2/3 154/2/3 153/2/3
f 160/2/3 159/2/3 158/2/3 157/2/3
f 164/2/3 163/2/3 162/2/3 161/2/3
f 168/2/3 167/2/3 166/2/3 165/2/3
f 172/2/3 171/2/3 170/2/3 169/2/3
f 176/2/3 175/2/3 174/2/3 173/2/3
f 180/2/3 179/2/3 178/2/3 177/2/3
f 184/3/3 183/3/3 182/3/3 181/3/3
f 188/1/3 187/1/3 186/1/3 185/1/3
f 192/1/3 191/1/3 190/1/3 189/1/3
f 196/2/3 195/2/3 194/2/3 193/2/3
f 200/2/3 199/2/3 198/2/3 197/2/3
f 204/2/3 203/2/3 202/2/3 201/2/3
f 208/2/3 207/2/3 206/2/3 205/2/3
f 209/3/4 210/3/4 211/3/4 212/3/4
f 213/1/4 214/1/4 215/1/4 216/1/4
f 217/1/4 218/1/4 219/1/4 220/1/4
f 221/2/4 222/2/4 223/2/4 224/2/4
f 225/2/4 226/2/4 227/2/4 228/2/4
f 229/2/4 230/2/4 231/2/4 232/2/4
f 233/2/4 234/2/4 235/2/4 236/2/4
f 237/1/4 238/1/4 239/1/4 240/1/4
f 241/2/4 242/2/4 243/2/4 244/2/4
f 245/2/4 246/2/4 247/2/4 248/2/4
f 249/2/4 250/2/4 251/2/4 252/2/4
f 253/2/4 254/2/4 255/2/4 256/2/4
f 257/2/4 258/2/4 259/2/4 260/2/4
f 261/2/4 262/2/4 263/2/4 264/2/4
f 265/2/4 266/2/4 267/2/4 268/2/4
f 269/2/4 270/2/4 271/2/4 272/2/4
f 273/2/4 274/2/4 275/2/4 276/2/4
f 277/2/4 278/2/4 279/2/4 280/2/4
f 281/2/4 282/2/4 283/2/4 284/2/4
f 285/2/4 286/2/4 287/2/4 288/2/4
f 289/2/4 290/2/4 291/2/4 292/2/4
f 293/2/4 294/2/4 295/2/4 296/2/4
f 300/2/5 299/2/5 298/2/5 297/2/5
f 304/2/5 303/2/5 302/2/5 301/2/5
f 308/2/5 307/2/5 306/2/5 305/2/5
f 312/2/5 311/2/5 310/2/5 309/2/5
f 316/1/5 315/1/5 314/1/5 313/1/5
f 320/2/5 319/2/5 318/2/5 317/2/5
f 324/2/5 323/2/5 322/2/5 321/2/5
f 328/2/5 327/2/5 326/2/5 325/2/5
f 332/2/5 331/2/5 330/2/5 329/2/5
f 336/2/5 335/2/5 334/2/5 333/2/5
f 340/2/5 339/2/5 338/2/5 337/2/5
f 344/1/5 343/1/5 342/1/5 341/1/5
f 348/2/5 347/2/5 346/2/5 345/2/5
f 352/2/5 351/2/5 350/2/5 349/2/5
f 356/2/5 355/2/5 354/2/5 353/2/5
f 360/2/5 359/2/5 358/2/5 357/2/5
f 364/2/5 363/2/5 362/2/5 361/2/5
f 368/2/5 367/2/5 366/2/5 365/2/5
f 372/1/5 371/1/5 370/1/5 369/1/5
f 376/2/5 375/2/5 374/2/5 373/2/5
f 380/2/5 379/2/5 378/2/5 377/2/5
f 384/2/5 383/2/5 382/2/5 381/2/5
f 388/2/5 387/2/5 386/2/5 385/2/5
f 392/2/5 391/2/5 390/2/5 389/2/5
f 396/2/5 395/2/5 394/2/5 393/2/5
f 400/2/5 399/2/5 398/2/5 397/2/5
f 404/2/5 403/2/5 402/2/5 401/2/5
f 408/2/5 407/2/5 406/2/5 405/2/5
f 412/2/5 411/2/5 410/2/5 409/2/5
f 416/1/5 415/1/5 414/1/5 413/1/5
f 420/2/5 419/2/5 418/2/5 417/2/5
f 424/2/5 423/2/5 422/2/5 421/2/5
f 428/3/5 427/3/5 426/3/5 425/3/5
f 432/3/5 431/3/5 430/3/5 429/3/5
f 436/3/5 435/3/5 434/3/5 433/3/5
f 440/1/5 439/1/5 438/1/5 437/1/5
f 444/2/5 443/2/5 442/2/5 441/2/5
f 448/2/5 447/2/5 446/2/5 445/2/5
f 449/1/6 450/1/6 451/1/6 452/1/6
f 453/2/6 454/2/6 455/2/6 456/2/6
f 457/2/6 458/2/6 459/2/6 460/2/6
f 461/3/6 462/3/6 463/3/6 464/3/6
f 465/3/6 466/3/6 467/3/6 468/3/6
f 469/3/6 470/3/6 471/3/6 472/3/6
f 473/1/6 474/1/6 475/1/6 476/1/6
f 477/2/6 478/2/6 479/2/6 480/2/6
f 481/2/6 482/2/6 483/2/6 484/2/6
f 485/2/6 486/2/6 487/2/6 488/2/6
f 489/2/6 490/2/6 491/2/6 492/2/6
f 493/2/6 494/2/6 495/2/6 496/2/6
f 497/2/6 498/2/6 499/2/6 500/2/6
f 501/1/6 502/1/6 503/1/6 504/1/6
f 505/2/6 506/2/6 507/2/6 508/2/6
f 509/2/6 510/2/6 511/2/6 512/2/6
f 513/2/6 514/2/6 515/2/6 516/2/6
f 517/2/6 518/2/6 519/2/6 520/2/6
f 521/2/6 522/2/6 523/2/6 524/2/6
f 525/2/6 526/2/6 527/2/6 528/2/6
f 529/1/6 530/1/6 531/1/6 532/1/6
f 533/2/6 534/2/6 535/2/6 536/2/6
f 537/2/6 538/2/6 539/2/6 540/2/6
f 541/2/6 542/2/6 543/2/6 544/2/6
f 545/2/6 546/2/6 547/2/6 548/2/6
f 549/2/6 550/2/6 551/2/6 552/2/6
f 553/2/6 554/2/6 555/2/6 556/2/6
f 557/1/6 558/1/6 559/1/6 560/1/6
f 561/2/6 562/2/6 563/2/6 564/2/6
f 565/2/6 566/2/6 567/2/6 568/2/6
f 569/2/6 570/2/6 571/2/6 572/2/6
f 573/2/6 574/2/6 575/2/6 576/2/6
f 577/2/6 578/2/6 579/2/6 580/2/6
f 581/2/6 582/2/6 583/2/6 584/2/6
f 585/2/6 586/2/6 587/2/6 588/2/6
f 589/2/6 590/2/6 591/2/6 592/2/6
f 593/2/6 594/2/6 595/2/6 596/2/6
f 597/2/6 598/2/6 599/2/6 600/2/6
